<?xml version="1.0" encoding="UTF-8" standalone="no"?>
<!DOCTYPE svg PUBLIC "-//W3C//DTD SVG 1.1//EN" "http://www.w3.org/Graphics/SVG/1.1/DTD/svg11.dtd">
<svg width="100%" height="100%" viewBox="0 0 1080 1080" version="1.1" xmlns="http://www.w3.org/2000/svg" xmlns:xlink="http://www.w3.org/1999/xlink" xml:space="preserve" xmlns:serif="http://www.serif.com/" style="fill-rule:evenodd;clip-rule:evenodd;stroke-linejoin:round;stroke-miterlimit:2;">
    <g id="e4dd58103b" transform="matrix(1.33333,0,0,1.33333,0,4.66667e-06)">
        <rect x="0" y="0" width="810" height="810" style="fill:white;"/>
        <rect x="0" y="0" width="810" height="810" style="fill:white;"/>
        <g>
            <clipPath id="_clip1">
                <rect x="0" y="0" width="810" height="310"/>
            </clipPath>
            <g clip-path="url(#_clip1)">
                <g>
                    <clipPath id="_clip2">
                        <path d="M-284.469,-153.516L814.297,-370.488L905.801,92.898L-192.965,309.867L-284.469,-153.516Z"/>
                    </clipPath>
                    <g clip-path="url(#_clip2)">
                        <path d="M-284.469,-153.516L814.262,-370.48L905.766,92.906L-192.965,309.867L-284.469,-153.516Z" style="fill:rgb(38,38,38);fill-rule:nonzero;"/>
                    </g>
                </g>
            </g>
        </g>
        <g>
            <clipPath id="_clip3">
                <rect x="37" y="273" width="206" height="206.133"/>
            </clipPath>
            <g clip-path="url(#_clip3)">
                <path d="M140.348,479.465C83.77,479.465 37.742,433.371 37.742,376.719C37.742,320.066 83.77,273.973 140.348,273.973C196.926,273.973 242.957,320.066 242.957,376.719C242.957,433.371 196.926,479.465 140.348,479.465" style="fill:rgb(3,4,5);fill-rule:nonzero;"/>
            </g>
        </g>
        <path d="M140.348,280.398C87.309,280.398 44.16,323.609 44.16,376.719C44.16,429.828 87.309,473.039 140.348,473.039C193.387,473.039 236.539,429.828 236.539,376.719C236.539,323.609 193.387,280.398 140.348,280.398" style="fill:rgb(3,4,5);fill-rule:nonzero;"/>
        <path d="M225.668,362.797C225.668,409.98 187.469,448.23 140.348,448.23C93.23,448.23 55.031,409.98 55.031,362.797C55.031,315.609 93.23,277.359 140.348,277.359C187.469,277.359 225.668,315.609 225.668,362.797" style="fill:rgb(221,228,96);fill-rule:nonzero;"/>
        <path d="M140.348,279.547C95.07,279.547 58.238,316.43 58.238,361.77C58.238,407.105 95.07,443.988 140.348,443.988C185.625,443.988 222.461,407.105 222.461,361.77C222.461,316.43 185.625,279.547 140.348,279.547M140.348,450.414C91.535,450.414 51.82,410.648 51.82,361.77C51.82,312.887 91.535,273.117 140.348,273.117C189.164,273.117 228.879,312.887 228.879,361.77C228.879,410.648 189.164,450.414 140.348,450.414" style="fill:rgb(3,4,5);fill-rule:nonzero;"/>
        <path d="M195.301,416.781C187.105,455.074 149.461,479.465 111.219,471.258C72.977,463.055 48.617,425.359 56.813,387.063C65.008,348.77 102.652,324.379 140.895,332.586C179.137,340.793 203.496,378.488 195.301,416.781" style="fill:rgb(167,220,218);fill-rule:nonzero;"/>
        <path d="M126.043,334.215C94.859,334.215 66.746,355.996 59.953,387.734C56.168,405.418 59.488,423.516 69.297,438.699C79.105,453.883 94.234,464.328 111.891,468.117C129.551,471.906 147.625,468.586 162.785,458.758C177.945,448.938 188.379,433.789 192.164,416.109C199.977,379.609 176.676,343.551 140.223,335.727C135.469,334.707 130.723,334.215 126.043,334.215M126.207,476.07C121,476.07 115.758,475.52 110.547,474.402C91.215,470.254 74.648,458.813 63.906,442.191C53.168,425.566 49.535,405.75 53.676,386.391C62.23,346.426 101.656,320.879 141.57,329.445C181.48,338.008 206.992,377.492 198.438,417.453C194.297,436.816 182.871,453.398 166.27,464.156C154.145,472.012 140.316,476.07 126.207,476.07" style="fill:rgb(3,4,5);fill-rule:nonzero;"/>
        <path d="M231.855,404.914C231.855,429.211 212.184,448.91 187.914,448.91C163.648,448.91 143.977,429.211 143.977,404.914C143.977,380.613 163.648,360.914 187.914,360.914C212.184,360.914 231.855,380.613 231.855,404.914" style="fill:rgb(246,223,62);fill-rule:nonzero;"/>
        <path d="M187.914,364.125C165.457,364.125 147.184,382.422 147.184,404.914C147.184,427.402 165.457,445.699 187.914,445.699C210.375,445.699 228.645,427.402 228.645,404.914C228.645,382.422 210.375,364.125 187.914,364.125M187.914,452.125C161.918,452.125 140.766,430.945 140.766,404.914C140.766,378.879 161.918,357.699 187.914,357.699C213.914,357.699 235.063,378.879 235.063,404.914C235.063,430.945 213.914,452.125 187.914,452.125" style="fill:rgb(3,4,5);fill-rule:nonzero;"/>
        <path d="M319.297,343.477L309.848,343.477L304.035,370.652L310.09,370.652C321.961,370.652 332.867,367.984 332.867,353.789C332.867,347.359 326.203,343.477 319.297,343.477M317.117,382.539L301.609,382.539L295.313,412.504L277.625,412.504L294.828,331.59L328.141,331.59C341.707,331.59 350.914,341.172 350.914,352.09C350.914,373.805 333.711,382.539 317.117,382.539" style="fill:rgb(35,31,32);fill-rule:nonzero;"/>
        <path d="M394.648,361.555C380.719,361.555 368,376.352 368,392.609C368,398.066 369.938,402.555 376.234,402.555C384.715,402.555 392.832,390.91 396.227,376.352L399.496,362.281C397.922,361.676 396.227,361.555 394.648,361.555M409.793,390.91C407.613,400.734 407.008,407.891 406.887,412.504L389.805,412.504C390.047,409.469 391.137,403.77 392.105,398.188C387.746,406.074 380.598,413.836 368.727,413.836C356.488,413.836 350.313,405.711 350.313,394.426C350.313,367.133 374.66,350.273 397.801,350.273C404.824,350.273 413.91,351.484 418.152,353.063L409.793,390.91Z" style="fill:rgb(35,31,32);fill-rule:nonzero;"/>
        <path d="M465.156,361.676C451.227,361.676 438.266,375.988 438.266,392.973C438.266,398.43 440.203,402.434 446.137,402.434C457.527,402.434 463.824,387.879 466.367,377.082L469.883,362.402C468.309,361.918 466.734,361.676 465.156,361.676M477.031,404.375C471.578,428.879 462.613,440.039 435.719,440.039C427.605,440.039 419.852,438.461 414.641,436.641L417.914,424.633C423.727,427.789 429.906,428.758 435.355,428.758C450.5,428.758 456.316,420.75 459.102,409.348L461.039,401.344C455.223,409.105 449.168,412.5 439.113,412.5C426.633,412.5 420.578,404.738 420.578,394.426C420.578,367.012 445.531,350.395 468.793,350.395C475.453,350.395 483.813,351.605 488.418,353.063L477.031,404.375Z" style="fill:rgb(35,31,32);fill-rule:nonzero;"/>
        <path d="M531.184,342.387L521.129,342.387L516.281,365.559L524.883,365.559C534.332,365.559 543.539,361.918 543.539,351.121C543.539,344.328 536.754,342.387 531.184,342.387M521.734,376.23L514.102,376.23L508.648,401.707L517.008,401.707C527.184,401.707 537.723,398.551 537.723,386.059C537.723,377.566 528.273,376.23 521.734,376.23M541.602,370.652C550.324,372.594 555.895,378.172 555.895,386.664C555.895,407.527 536.027,412.504 519.309,412.504L489.387,412.504L506.59,331.59L538.934,331.59C549.719,331.59 561.348,336.566 561.348,348.574C561.348,360.461 553.352,368.469 541.602,370.652" style="fill:rgb(35,31,32);fill-rule:nonzero;"/>
        <path d="M607.504,361.555C593.574,361.555 580.852,376.352 580.852,392.609C580.852,398.066 582.793,402.555 589.09,402.555C597.57,402.555 605.688,390.91 609.082,376.352L612.352,362.281C610.773,361.676 609.082,361.555 607.504,361.555M622.648,390.91C620.465,400.734 619.859,407.891 619.742,412.504L602.66,412.504C602.902,409.469 603.992,403.77 604.961,398.188C600.598,406.074 593.453,413.836 581.582,413.836C569.344,413.836 563.168,405.711 563.168,394.426C563.168,367.133 587.516,350.273 610.656,350.273C617.68,350.273 626.766,351.484 631.008,353.063L622.648,390.91Z" style="fill:rgb(35,31,32);fill-rule:nonzero;"/>
        <path d="M695.578,372.227L687.098,412.504L670.379,412.504L678.012,375.867C678.496,373.684 678.98,371.621 678.98,369.559C678.98,364.949 676.801,361.676 670.984,361.676C661.898,361.676 657.539,369.801 655.844,377.688L648.453,412.504L631.613,412.504L641.547,365.191C642.516,360.703 643.363,356.215 643.852,351.605L659.598,351.605L657.781,362.402C663.598,354.273 669.652,350.395 679.707,350.395C689.52,350.395 696.305,355.246 696.305,365.313C696.305,367.496 696.063,369.801 695.578,372.227" style="fill:rgb(35,31,32);fill-rule:nonzero;"/>
        <path d="M739.434,379.266L758.574,412.504L739.434,412.504L722.957,380.598L716.414,412.504L699.578,412.504L717.992,325.039L734.711,325.039L723.926,376.719L749.973,351.605L769.719,351.605L739.434,379.266Z" style="fill:rgb(35,31,32);fill-rule:nonzero;"/>
        <g transform="matrix(1,0,0,1,416.706,487.345)">
            <g>
                <path d="M17.078,-25.984C14.598,-25.984 12.68,-25.051 11.328,-23.188C9.973,-21.332 9.297,-18.742 9.297,-15.422C9.297,-8.504 11.891,-5.047 17.078,-5.047C19.254,-5.047 21.891,-5.594 24.984,-6.688L24.984,-1.172C22.441,-0.109 19.598,0.422 16.453,0.422C11.941,0.422 8.492,-0.941 6.109,-3.672C3.723,-6.41 2.531,-10.344 2.531,-15.469C2.531,-18.688 3.113,-21.508 4.281,-23.938C5.457,-26.363 7.145,-28.223 9.344,-29.516C11.539,-30.805 14.117,-31.453 17.078,-31.453C20.086,-31.453 23.113,-30.723 26.156,-29.266L24.031,-23.922C22.875,-24.473 21.707,-24.953 20.531,-25.359C19.352,-25.773 18.203,-25.984 17.078,-25.984Z" style="fill:rgb(32,31,31);fill-rule:nonzero;"/>
            </g>
        </g>
        <g transform="matrix(1,0,0,1,465.927,487.345)">
            <g>
                <path d="M32.047,-15.547C32.047,-10.41 30.77,-6.461 28.219,-3.703C25.676,-0.953 22.031,0.422 17.281,0.422C12.531,0.422 8.883,-0.953 6.344,-3.703C3.801,-6.461 2.531,-10.426 2.531,-15.594C2.531,-20.75 3.805,-24.688 6.359,-27.406C8.91,-30.133 12.566,-31.5 17.328,-31.5C22.086,-31.5 25.727,-30.125 28.25,-27.375C30.781,-24.633 32.047,-20.691 32.047,-15.547ZM9.422,-15.547C9.422,-12.078 10.078,-9.469 11.391,-7.719C12.703,-5.969 14.664,-5.094 17.281,-5.094C22.531,-5.094 25.156,-8.578 25.156,-15.547C25.156,-22.535 22.547,-26.031 17.328,-26.031C14.711,-26.031 12.738,-25.148 11.406,-23.391C10.082,-21.629 9.422,-19.016 9.422,-15.547Z" style="fill:rgb(32,31,31);fill-rule:nonzero;"/>
            </g>
        </g>
        <g transform="matrix(1,0,0,1,522.04,487.345)">
            <g>
                <path d="M31.406,0L23.063,0L9.563,-23.453L9.375,-23.453C9.645,-19.316 9.781,-16.363 9.781,-14.594L9.781,0L3.906,0L3.906,-31.016L12.203,-31.016L25.656,-7.781L25.813,-7.781C25.602,-11.813 25.5,-14.66 25.5,-16.328L25.5,-31.016L31.406,-31.016L31.406,0Z" style="fill:rgb(32,31,31);fill-rule:nonzero;"/>
            </g>
        </g>
        <g transform="matrix(1,0,0,1,578.895,487.345)">
            <g>
                <path d="M31.406,0L23.063,0L9.563,-23.453L9.375,-23.453C9.645,-19.316 9.781,-16.363 9.781,-14.594L9.781,0L3.906,0L3.906,-31.016L12.203,-31.016L25.656,-7.781L25.813,-7.781C25.602,-11.813 25.5,-14.66 25.5,-16.328L25.5,-31.016L31.406,-31.016L31.406,0Z" style="fill:rgb(32,31,31);fill-rule:nonzero;"/>
            </g>
        </g>
        <g transform="matrix(1,0,0,1,635.75,487.345)">
            <g>
                <path d="M21.766,0L3.906,0L3.906,-31.016L21.766,-31.016L21.766,-25.625L10.484,-25.625L10.484,-18.813L20.969,-18.813L20.969,-13.422L10.484,-13.422L10.484,-5.438L21.766,-5.438L21.766,0Z" style="fill:rgb(32,31,31);fill-rule:nonzero;"/>
            </g>
        </g>
        <g transform="matrix(1,0,0,1,681.62,487.345)">
            <g>
                <path d="M17.078,-25.984C14.598,-25.984 12.68,-25.051 11.328,-23.188C9.973,-21.332 9.297,-18.742 9.297,-15.422C9.297,-8.504 11.891,-5.047 17.078,-5.047C19.254,-5.047 21.891,-5.594 24.984,-6.688L24.984,-1.172C22.441,-0.109 19.598,0.422 16.453,0.422C11.941,0.422 8.492,-0.941 6.109,-3.672C3.723,-6.41 2.531,-10.344 2.531,-15.469C2.531,-18.688 3.113,-21.508 4.281,-23.938C5.457,-26.363 7.145,-28.223 9.344,-29.516C11.539,-30.805 14.117,-31.453 17.078,-31.453C20.086,-31.453 23.113,-30.723 26.156,-29.266L24.031,-23.922C22.875,-24.473 21.707,-24.953 20.531,-25.359C19.352,-25.773 18.203,-25.984 17.078,-25.984Z" style="fill:rgb(32,31,31);fill-rule:nonzero;"/>
            </g>
        </g>
        <g transform="matrix(1,0,0,1,730.841,487.345)">
            <g>
                <path d="M15.859,0L9.297,0L9.297,-25.531L0.875,-25.531L0.875,-31.016L24.281,-31.016L24.281,-25.531L15.859,-25.531L15.859,0Z" style="fill:rgb(32,31,31);fill-rule:nonzero;"/>
            </g>
        </g>
        <g>
            <clipPath id="_clip4">
                <rect x="0" y="722.5" width="810" height="87.5"/>
            </clipPath>
            <g clip-path="url(#_clip4)">
                <rect x="-0.156" y="722.5" width="1103.65" height="87.5" style="fill-rule:nonzero;"/>
            </g>
        </g>
        <g transform="matrix(1,0,0,1,20.823,791.592)">
            <g>
                <path d="M40.609,0L7.281,0L7.281,-57.859L40.609,-57.859L40.609,-47.813L19.547,-47.813L19.547,-35.109L39.141,-35.109L39.141,-25.047L19.547,-25.047L19.547,-10.125L40.609,-10.125L40.609,0Z" style="fill:white;fill-rule:nonzero;"/>
            </g>
        </g>
        <g transform="matrix(1,0,0,1,69.9734,790.062)">
            <g>
                <path d="M23.016,-35.016C19.68,-35.016 17.098,-33.758 15.266,-31.25C13.43,-28.75 12.516,-25.258 12.516,-20.781C12.516,-11.457 16.016,-6.797 23.016,-6.797C25.953,-6.797 29.504,-7.531 33.672,-9L33.672,-1.578C30.242,-0.141 26.414,0.578 22.188,0.578C16.102,0.578 11.453,-1.266 8.234,-4.953C5.016,-8.641 3.406,-13.938 3.406,-20.844C3.406,-25.188 4.191,-28.988 5.766,-32.25C7.348,-35.52 9.617,-38.023 12.578,-39.766C15.547,-41.516 19.023,-42.391 23.016,-42.391C27.078,-42.391 31.156,-41.41 35.25,-39.453L32.391,-32.25C30.828,-32.988 29.254,-33.633 27.672,-34.188C26.086,-34.738 24.535,-35.016 23.016,-35.016Z" style="fill:white;fill-rule:nonzero;"/>
            </g>
        </g>
        <g transform="matrix(1,0,0,1,110.669,790.062)">
            <g>
                <path d="M43.203,-20.953C43.203,-14.035 41.484,-8.719 38.047,-5C34.617,-1.281 29.703,0.578 23.297,0.578C16.891,0.578 11.973,-1.281 8.547,-5C5.117,-8.719 3.406,-14.055 3.406,-21.016C3.406,-27.973 5.125,-33.285 8.563,-36.953C12,-40.617 16.93,-42.453 23.359,-42.453C29.773,-42.453 34.688,-40.602 38.094,-36.906C41.5,-33.207 43.203,-27.891 43.203,-20.953ZM12.688,-20.953C12.688,-16.285 13.57,-12.77 15.344,-10.406C17.125,-8.039 19.773,-6.859 23.297,-6.859C30.367,-6.859 33.906,-11.555 33.906,-20.953C33.906,-30.367 30.391,-35.078 23.359,-35.078C19.828,-35.078 17.164,-33.891 15.375,-31.516C13.582,-29.141 12.688,-25.617 12.688,-20.953Z" style="fill:white;fill-rule:nonzero;"/>
            </g>
        </g>
        <g transform="matrix(1,0,0,1,160.654,790.062)">
            <g>
                <path d="M42.344,0L31.078,0L12.891,-31.625L12.641,-31.625C12.992,-26.031 13.172,-22.047 13.172,-19.672L13.172,0L5.266,0L5.266,-41.797L16.438,-41.797L34.594,-10.484L34.797,-10.484C34.504,-15.922 34.359,-19.766 34.359,-22.016L34.359,-41.797L42.344,-41.797L42.344,0Z" style="fill:white;fill-rule:nonzero;"/>
            </g>
        </g>
        <g transform="matrix(1,0,0,1,211.639,790.062)">
            <g>
                <path d="M43.203,-20.953C43.203,-14.035 41.484,-8.719 38.047,-5C34.617,-1.281 29.703,0.578 23.297,0.578C16.891,0.578 11.973,-1.281 8.547,-5C5.117,-8.719 3.406,-14.055 3.406,-21.016C3.406,-27.973 5.125,-33.285 8.563,-36.953C12,-40.617 16.93,-42.453 23.359,-42.453C29.773,-42.453 34.688,-40.602 38.094,-36.906C41.5,-33.207 43.203,-27.891 43.203,-20.953ZM12.688,-20.953C12.688,-16.285 13.57,-12.77 15.344,-10.406C17.125,-8.039 19.773,-6.859 23.297,-6.859C30.367,-6.859 33.906,-11.555 33.906,-20.953C33.906,-30.367 30.391,-35.078 23.359,-35.078C19.828,-35.078 17.164,-33.891 15.375,-31.516C13.582,-29.141 12.688,-25.617 12.688,-20.953Z" style="fill:white;fill-rule:nonzero;"/>
            </g>
        </g>
        <g transform="matrix(1,0,0,1,261.624,790.062)">
            <g>
                <path d="M22.953,0L12.891,-32.797L12.641,-32.797C12.992,-26.117 13.172,-21.664 13.172,-19.438L13.172,0L5.266,0L5.266,-41.797L17.328,-41.797L27.219,-9.828L27.391,-9.828L37.875,-41.797L49.938,-41.797L49.938,0L41.688,0L41.688,-19.781C41.688,-20.719 41.695,-21.797 41.719,-23.016C41.75,-24.234 41.879,-27.473 42.109,-32.734L41.859,-32.734L31.078,0L22.953,0Z" style="fill:white;fill-rule:nonzero;"/>
            </g>
        </g>
        <g transform="matrix(1,0,0,1,320.212,790.062)">
            <g>
                <rect x="5.266" y="-41.797" width="8.859" height="41.797" style="fill:white;fill-rule:nonzero;"/>
            </g>
        </g>
        <g transform="matrix(1,0,0,1,342.987,790.062)">
            <g>
                <path d="M32.5,0L1.406,0L1.406,-5.75L21.438,-34.469L1.938,-34.469L1.938,-41.797L31.953,-41.797L31.953,-36.078L11.953,-7.313L32.5,-7.313L32.5,0Z" style="fill:white;fill-rule:nonzero;"/>
            </g>
        </g>
        <g transform="matrix(1,0,0,1,380.281,790.062)">
            <g>
                <path d="M29.328,0L5.266,0L5.266,-41.797L29.328,-41.797L29.328,-34.531L14.125,-34.531L14.125,-25.359L28.266,-25.359L28.266,-18.094L14.125,-18.094L14.125,-7.313L29.328,-7.313L29.328,0Z" style="fill:white;fill-rule:nonzero;"/>
            </g>
        </g>
        <g transform="matrix(1,0,0,1,435.062,790.062)">
            <g>
                <path d="M42.344,0L31.078,0L12.891,-31.625L12.641,-31.625C12.992,-26.031 13.172,-22.047 13.172,-19.672L13.172,0L5.266,0L5.266,-41.797L16.438,-41.797L34.594,-10.484L34.797,-10.484C34.504,-15.922 34.359,-19.766 34.359,-22.016L34.359,-41.797L42.344,-41.797L42.344,0Z" style="fill:white;fill-rule:nonzero;"/>
            </g>
        </g>
        <g transform="matrix(1,0,0,1,486.048,790.062)">
            <g>
                <path d="M30.844,0L27.813,-9.953L12.578,-9.953L9.547,0L0,0L14.75,-41.969L25.578,-41.969L40.391,0L30.844,0ZM25.703,-17.375C22.898,-26.395 21.32,-31.492 20.969,-32.672C20.613,-33.859 20.363,-34.797 20.219,-35.484C19.582,-33.035 17.781,-27 14.813,-17.375L25.703,-17.375Z" style="fill:white;fill-rule:nonzero;"/>
            </g>
        </g>
        <g transform="matrix(1,0,0,1,529.83,790.062)">
            <g>
                <path d="M29.938,-11.609C29.938,-7.836 28.578,-4.863 25.859,-2.688C23.141,-0.508 19.359,0.578 14.516,0.578C10.055,0.578 6.113,-0.258 2.688,-1.938L2.688,-10.172C5.508,-8.922 7.895,-8.035 9.844,-7.516C11.801,-7.004 13.586,-6.75 15.203,-6.75C17.148,-6.75 18.641,-7.117 19.672,-7.859C20.711,-8.598 21.234,-9.703 21.234,-11.172C21.234,-11.992 21.004,-12.723 20.547,-13.359C20.098,-14.004 19.426,-14.617 18.531,-15.203C17.645,-15.797 15.844,-16.738 13.125,-18.031C10.57,-19.238 8.656,-20.395 7.375,-21.5C6.094,-22.602 5.07,-23.891 4.313,-25.359C3.551,-26.828 3.172,-28.539 3.172,-30.5C3.172,-34.195 4.422,-37.102 6.922,-39.219C9.43,-41.332 12.898,-42.391 17.328,-42.391C19.492,-42.391 21.563,-42.129 23.531,-41.609C25.508,-41.098 27.578,-40.379 29.734,-39.453L26.875,-32.563C24.645,-33.477 22.801,-34.113 21.344,-34.469C19.883,-34.832 18.445,-35.016 17.031,-35.016C15.352,-35.016 14.066,-34.625 13.172,-33.844C12.273,-33.063 11.828,-32.039 11.828,-30.781C11.828,-30 12.008,-29.316 12.375,-28.734C12.738,-28.16 13.316,-27.602 14.109,-27.063C14.898,-26.52 16.77,-25.539 19.719,-24.125C23.625,-22.258 26.301,-20.383 27.75,-18.5C29.207,-16.625 29.938,-14.328 29.938,-11.609Z" style="fill:white;fill-rule:nonzero;"/>
            </g>
        </g>
        <g transform="matrix(1,0,0,1,580.492,791.592)">
            <g>
                <path d="M29.594,0L17.328,0L17.328,-47.641L1.625,-47.641L1.625,-57.859L45.313,-57.859L45.313,-47.641L29.594,-47.641L29.594,0Z" style="fill:white;fill-rule:nonzero;"/>
            </g>
        </g>
        <g transform="matrix(1,0,0,1,623.74,790.062)">
            <g>
                <path d="M30.844,0L27.813,-9.953L12.578,-9.953L9.547,0L0,0L14.75,-41.969L25.578,-41.969L40.391,0L30.844,0ZM25.703,-17.375C22.898,-26.395 21.32,-31.492 20.969,-32.672C20.613,-33.859 20.363,-34.797 20.219,-35.484C19.582,-33.035 17.781,-27 14.813,-17.375L25.703,-17.375Z" style="fill:white;fill-rule:nonzero;"/>
            </g>
        </g>
        <g transform="matrix(1,0,0,1,667.523,790.062)">
            <g>
                <path d="M39.047,0L28.938,0L19.203,-15.813L9.484,0L0,0L13.859,-21.563L0.891,-41.797L10.656,-41.797L19.672,-26.75L28.5,-41.797L38.047,-41.797L24.922,-21.063L39.047,0Z" style="fill:white;fill-rule:nonzero;"/>
            </g>
        </g>
        <g transform="matrix(1,0,0,1,709.962,790.062)">
            <g>
                <path d="M30.844,0L27.813,-9.953L12.578,-9.953L9.547,0L0,0L14.75,-41.969L25.578,-41.969L40.391,0L30.844,0ZM25.703,-17.375C22.898,-26.395 21.32,-31.492 20.969,-32.672C20.613,-33.859 20.363,-34.797 20.219,-35.484C19.582,-33.035 17.781,-27 14.813,-17.375L25.703,-17.375Z" style="fill:white;fill-rule:nonzero;"/>
            </g>
        </g>
        <g transform="matrix(1,0,0,1,753.744,790.062)">
            <g>
                <path d="M29.938,-11.609C29.938,-7.836 28.578,-4.863 25.859,-2.688C23.141,-0.508 19.359,0.578 14.516,0.578C10.055,0.578 6.113,-0.258 2.688,-1.938L2.688,-10.172C5.508,-8.922 7.895,-8.035 9.844,-7.516C11.801,-7.004 13.586,-6.75 15.203,-6.75C17.148,-6.75 18.641,-7.117 19.672,-7.859C20.711,-8.598 21.234,-9.703 21.234,-11.172C21.234,-11.992 21.004,-12.723 20.547,-13.359C20.098,-14.004 19.426,-14.617 18.531,-15.203C17.645,-15.797 15.844,-16.738 13.125,-18.031C10.57,-19.238 8.656,-20.395 7.375,-21.5C6.094,-22.602 5.07,-23.891 4.313,-25.359C3.551,-26.828 3.172,-28.539 3.172,-30.5C3.172,-34.195 4.422,-37.102 6.922,-39.219C9.43,-41.332 12.898,-42.391 17.328,-42.391C19.492,-42.391 21.563,-42.129 23.531,-41.609C25.508,-41.098 27.578,-40.379 29.734,-39.453L26.875,-32.563C24.645,-33.477 22.801,-34.113 21.344,-34.469C19.883,-34.832 18.445,-35.016 17.031,-35.016C15.352,-35.016 14.066,-34.625 13.172,-33.844C12.273,-33.063 11.828,-32.039 11.828,-30.781C11.828,-30 12.008,-29.316 12.375,-28.734C12.738,-28.16 13.316,-27.602 14.109,-27.063C14.898,-26.52 16.77,-25.539 19.719,-24.125C23.625,-22.258 26.301,-20.383 27.75,-18.5C29.207,-16.625 29.938,-14.328 29.938,-11.609Z" style="fill:white;fill-rule:nonzero;"/>
            </g>
        </g>
        <g>
            <path d="M448.484,603.262L445.367,607.887L377.871,562.395L380.988,557.77C382.418,555.641 385.313,555.074 387.434,556.504L447.219,596.805C449.344,598.234 449.914,601.133 448.484,603.262ZM426.742,635.566L430.168,611.09L439.141,617.137L426.742,635.566ZM420.387,656.793C420.031,659.328 417.68,661.109 415.145,660.754L343.758,650.746C341.223,650.391 339.438,648.027 339.801,645.492L344.184,614.188L424.773,625.496L420.387,656.793ZM346.504,597.621C346.859,595.078 349.215,593.305 351.746,593.664L423.133,603.68C425.676,604.027 427.453,606.379 427.09,608.926L426.316,614.445L345.727,603.141L346.504,597.621ZM371.652,571.648L411.793,598.703L358.473,591.219L371.652,571.648ZM449.09,594.031L389.309,553.734C385.656,551.273 380.676,552.234 378.211,555.898L354.781,590.703L352.215,590.348C347.852,589.734 343.805,592.793 343.191,597.16L336.496,645.02C335.875,649.391 338.934,653.441 343.289,654.055L414.676,664.07C419.039,664.684 423.086,661.617 423.699,657.254L425.684,643.129L451.254,605.125C453.719,601.477 452.742,596.492 449.09,594.031" style="fill-rule:nonzero;"/>
        </g>
        <path d="M382.719,628.313L417.141,633.152L417.52,630.418L383.105,625.586L382.719,628.313" style="fill-rule:nonzero;"/>
        <path d="M381.902,634.219L416.316,639.039L416.695,636.309L382.281,631.477L381.902,634.219" style="fill-rule:nonzero;"/>
        <path d="M283.355,587.855L270.398,600.813C268.977,602.23 267.109,602.941 265.242,602.941C263.375,602.941 261.508,602.23 260.086,600.813L247.133,587.855C244.199,584.922 240.305,583.309 236.156,583.309L226.965,583.309L215.418,594.855C208.195,602.078 208.195,613.781 215.418,621L226.965,632.551L236.156,632.551C240.305,632.551 244.199,630.934 247.133,628.004L260.086,615.047C262.93,612.203 267.555,612.203 270.398,615.047L283.355,628.004C286.285,630.934 290.184,632.551 294.328,632.551L303.344,632.551L314.891,621C322.109,613.781 322.109,602.078 314.891,594.855L303.344,583.309L294.328,583.309C290.184,583.309 286.285,584.922 283.355,587.855Z" style="fill-rule:nonzero;"/>
        <path d="M236.156,580.066C241.168,580.066 245.879,582.02 249.422,585.563L262.379,598.52C263.957,600.098 266.527,600.098 268.105,598.52L281.063,585.563C284.605,582.02 289.316,580.066 294.328,580.066L300.102,580.066L278.227,558.191C271.004,550.973 259.301,550.973 252.082,558.191L230.207,580.066L236.156,580.066Z" style="fill-rule:nonzero;"/>
        <path d="M294.328,635.793C289.316,635.793 284.605,633.84 281.063,630.297L268.105,617.34C266.527,615.762 263.961,615.762 262.379,617.34L249.422,630.297C245.879,633.84 241.168,635.793 236.156,635.793L230.207,635.793L252.082,657.668C259.301,664.887 271.008,664.887 278.227,657.668L300.102,635.793L294.328,635.793Z" style="fill-rule:nonzero;"/>
        <g>
            <clipPath id="_clip5">
                <rect x="762" y="675" width="48" height="88"/>
            </clipPath>
            <g clip-path="url(#_clip5)">
                <g>
                    <clipPath id="_clip6">
                        <path d="M762.832,707.543L789.387,675.012L857.172,730.344L830.617,762.875L762.832,707.543Z"/>
                    </clipPath>
                    <g clip-path="url(#_clip6)">
                        <path d="M762.832,707.543L789.387,675.012L857.117,730.301L830.563,762.832L762.832,707.543Z" style="fill:white;fill-rule:nonzero;"/>
                    </g>
                </g>
            </g>
        </g>
        <g transform="matrix(1,0,0,1,467,550)">
            <g>
                <g>
                    <g>
                        <path d="M0.113,0.969L9.965,0.969L9.965,119.199L0.113,119.199L0.113,0.969ZM128.195,0.969L134.762,0.969L134.762,119.199L128.195,119.199L128.195,0.969ZM16.531,0.969L26.387,0.969L26.387,76.504L16.531,76.504L16.531,0.969ZM32.953,0.969L39.523,0.969L39.523,76.504L32.953,76.504L32.953,0.969ZM46.09,0.969L52.66,0.969L52.66,76.504L46.09,76.504L46.09,0.969ZM62.512,0.969L72.363,0.969L72.363,76.504L62.512,76.504L62.512,0.969ZM82.215,0.969L88.785,0.969L88.785,76.504L82.215,76.504L82.215,0.969ZM95.352,0.969L101.922,0.969L101.922,76.504L95.352,76.504L95.352,0.969ZM108.488,0.969L121.625,0.969L121.625,76.504L108.488,76.504L108.488,0.969ZM16.566,112.613L16.566,88.777L23.32,88.777C25.809,88.777 27.703,89.328 28.992,90.438C30.285,91.547 30.934,93.168 30.934,95.305C30.934,96.516 30.668,97.559 30.133,98.434C29.598,99.305 28.867,99.941 27.938,100.348C29.004,100.652 29.828,101.266 30.41,102.188C30.988,103.113 31.277,104.246 31.277,105.602C31.277,107.914 30.641,109.66 29.375,110.84C28.102,112.016 26.262,112.602 23.848,112.602L16.566,112.602L16.566,112.613ZM21.355,98.746L23.273,98.746C25.164,98.746 26.109,97.77 26.109,95.816C26.109,94.734 25.891,93.961 25.457,93.488C25.02,93.016 24.309,92.785 23.328,92.785L21.355,92.785L21.355,98.746ZM21.355,102.25L21.355,108.621L23.848,108.621C24.711,108.621 25.363,108.355 25.809,107.816C26.258,107.281 26.48,106.523 26.48,105.543C26.48,103.402 25.707,102.305 24.156,102.25L21.355,102.25ZM49.719,102.73C49.719,105.852 48.98,108.273 47.504,109.996C46.035,111.723 43.988,112.582 41.367,112.582C38.758,112.582 36.711,111.73 35.219,110.023C33.727,108.313 32.973,105.922 32.949,102.848L32.949,98.867C32.949,95.676 33.688,93.188 35.168,91.391C36.648,89.598 38.699,88.699 41.332,88.699C43.918,88.699 45.957,89.578 47.445,91.344C48.938,93.102 49.688,95.578 49.711,98.762L49.719,102.73ZM45.008,98.832C45.008,96.742 44.715,95.18 44.117,94.156C43.52,93.137 42.594,92.625 41.336,92.625C40.094,92.625 39.172,93.113 38.578,94.098C37.98,95.082 37.672,96.578 37.648,98.594L37.648,102.727C37.648,104.762 37.953,106.258 38.559,107.219C39.168,108.184 40.102,108.664 41.371,108.664C42.594,108.664 43.504,108.199 44.102,107.246C44.699,106.313 45.004,104.848 45.012,102.867L45.008,98.832ZM121.625,102.793C121.625,105.914 120.887,108.332 119.414,110.059C117.941,111.785 115.895,112.645 113.273,112.645C110.664,112.645 108.617,111.793 107.125,110.086C105.637,108.375 104.879,105.984 104.855,102.91L104.855,98.93C104.855,95.738 105.598,93.25 107.074,91.453C108.555,89.66 110.609,88.762 113.238,88.762C115.828,88.762 117.867,89.641 119.352,91.406C120.844,93.164 121.598,95.641 121.621,98.824L121.625,102.793ZM116.918,98.898C116.918,96.805 116.621,95.246 116.023,94.223C115.426,93.199 114.5,92.691 113.246,92.691C112,92.691 111.082,93.18 110.484,94.164C109.887,95.148 109.578,96.645 109.559,98.66L109.559,102.793C109.559,104.828 109.859,106.324 110.465,107.285C111.074,108.25 112.012,108.73 113.277,108.73C114.5,108.73 115.414,108.266 116.008,107.313C116.605,106.375 116.91,104.91 116.918,102.934L116.918,98.898ZM57.469,108.625L65.918,108.625L65.918,112.621L52.66,112.621L52.66,88.785L57.473,88.785L57.469,108.625ZM81.391,102.309L73.895,102.309L73.895,108.625L82.77,108.625L82.77,112.621L69.078,112.621L69.078,88.785L82.73,88.785L82.73,92.797L73.895,92.797L73.895,98.43L81.391,98.43L81.391,102.309ZM102.793,92.805L96.895,92.805L96.895,112.629L92.07,112.629L92.07,92.805L86.273,92.805L86.273,88.793L102.789,88.793L102.793,92.805Z" style="fill:rgb(11,5,12);fill-rule:nonzero;"/>
                    </g>
                </g>
            </g>
        </g>
    </g>
</svg>
