<?xml version="1.0" encoding="UTF-8" standalone="no"?>
<!DOCTYPE svg PUBLIC "-//W3C//DTD SVG 1.1//EN" "http://www.w3.org/Graphics/SVG/1.1/DTD/svg11.dtd">
<svg width="100%" height="100%" viewBox="0 0 1080 1080" version="1.1" xmlns="http://www.w3.org/2000/svg" xmlns:xlink="http://www.w3.org/1999/xlink" xml:space="preserve" xmlns:serif="http://www.serif.com/" style="fill-rule:evenodd;clip-rule:evenodd;stroke-linejoin:round;stroke-miterlimit:2;">
    <g id="_29728bb5bc" serif:id="29728bb5bc" transform="matrix(1.33333,0,0,1.33333,0,4.66667e-06)">
        <rect x="0" y="0" width="810" height="810" style="fill:white;"/>
        <rect x="0" y="0" width="810" height="810" style="fill:white;"/>
        <g>
            <clipPath id="_clip1">
                <rect x="0" y="0" width="810" height="254"/>
            </clipPath>
            <g clip-path="url(#_clip1)">
                <g>
                    <clipPath id="_clip2">
                        <path d="M-284.469,-210.082L814.297,-427.051L905.801,36.336L-192.965,253.305L-284.469,-210.082Z"/>
                    </clipPath>
                    <g clip-path="url(#_clip2)">
                        <path d="M-284.469,-210.082L814.262,-427.043L905.766,36.34L-192.965,253.305L-284.469,-210.082Z" style="fill:rgb(38,38,38);fill-rule:nonzero;"/>
                    </g>
                </g>
            </g>
        </g>
        <g>
            <clipPath id="_clip3">
                <rect x="7" y="211" width="224" height="223.926"/>
            </clipPath>
            <g clip-path="url(#_clip3)">
                <path d="M119.18,435.285C57.668,435.285 7.625,385.172 7.625,323.574C7.625,261.977 57.668,211.863 119.18,211.863C180.691,211.863 230.734,261.977 230.734,323.574C230.734,385.172 180.691,435.285 119.18,435.285" style="fill:rgb(3,4,5);fill-rule:nonzero;"/>
            </g>
        </g>
        <path d="M119.18,218.848C61.516,218.848 14.602,265.828 14.602,323.574C14.602,381.316 61.516,428.297 119.18,428.297C176.844,428.297 223.758,381.316 223.758,323.574C223.758,265.828 176.844,218.848 119.18,218.848" style="fill:rgb(3,4,5);fill-rule:nonzero;"/>
        <path d="M211.941,308.434C211.941,359.738 170.41,401.324 119.18,401.324C67.949,401.324 26.422,359.738 26.422,308.434C26.422,257.133 67.949,215.543 119.18,215.543C170.41,215.543 211.941,257.133 211.941,308.434" style="fill:rgb(221,228,96);fill-rule:nonzero;"/>
        <g>
            <path d="M119.18,217.918C69.957,217.918 29.91,258.023 29.91,307.316C29.91,356.613 69.957,396.715 119.18,396.715C168.406,396.715 208.453,356.613 208.453,307.316C208.453,258.023 168.406,217.918 119.18,217.918M119.18,403.703C66.109,403.703 22.93,360.465 22.93,307.316C22.93,254.168 66.109,210.93 119.18,210.93C172.254,210.93 215.43,254.168 215.43,307.316C215.43,360.465 172.254,403.703 119.18,403.703" style="fill:rgb(3,4,5);fill-rule:nonzero;"/>
        </g>
        <path d="M178.926,367.133C170.016,408.77 129.086,435.289 87.508,426.363C45.934,417.441 19.449,376.457 28.359,334.82C37.27,293.184 78.199,266.664 119.773,275.59C161.352,284.512 187.836,325.496 178.926,367.133" style="fill:rgb(167,220,218);fill-rule:nonzero;"/>
        <path d="M103.629,277.363C69.723,277.363 39.156,301.043 31.77,335.551C27.656,354.777 31.266,374.457 41.934,390.961C52.598,407.469 69.043,418.828 88.242,422.949C107.441,427.066 127.09,423.457 143.574,412.773C160.059,402.094 171.398,385.625 175.516,366.402C184.008,326.715 158.676,287.508 119.043,279.004C113.875,277.895 108.715,277.363 103.629,277.363M103.805,431.598C98.145,431.598 92.445,430.996 86.781,429.781C65.758,425.27 47.754,412.832 36.074,394.758C24.395,376.684 20.445,355.141 24.949,334.09C34.25,290.637 77.113,262.859 120.508,272.172C163.898,281.484 191.637,324.414 182.336,367.863C177.832,388.914 165.41,406.945 147.363,418.641C134.18,427.184 119.145,431.598 103.805,431.598" style="fill:rgb(3,4,5);fill-rule:nonzero;"/>
        <path d="M218.668,354.227C218.668,380.648 197.277,402.066 170.895,402.066C144.512,402.066 123.125,380.648 123.125,354.227C123.125,327.809 144.512,306.387 170.895,306.387C197.277,306.387 218.668,327.809 218.668,354.227" style="fill:rgb(246,223,62);fill-rule:nonzero;"/>
        <path d="M170.895,309.883C146.477,309.883 126.613,329.777 126.613,354.227C126.613,378.68 146.477,398.574 170.895,398.574C195.313,398.574 215.176,378.68 215.176,354.227C215.176,329.777 195.313,309.883 170.895,309.883M170.895,405.559C142.629,405.559 119.633,382.531 119.633,354.227C119.633,325.922 142.629,302.895 170.895,302.895C199.16,302.895 222.156,325.922 222.156,354.227C222.156,382.531 199.16,405.559 170.895,405.559" style="fill:rgb(3,4,5);fill-rule:nonzero;"/>
        <path d="M313.734,287.434L303.461,287.434L297.141,316.977L303.727,316.977C316.633,316.977 328.488,314.074 328.488,298.645C328.488,291.652 321.242,287.434 313.734,287.434M311.367,329.902L294.508,329.902L287.656,362.48L268.43,362.48L287.133,274.508L323.352,274.508C338.102,274.508 348.113,284.926 348.113,296.797C348.113,320.406 329.41,329.902 311.367,329.902" style="fill:rgb(35,31,32);fill-rule:nonzero;"/>
        <path d="M395.66,307.086C380.516,307.086 366.684,323.176 366.684,340.848C366.684,346.785 368.793,351.664 375.641,351.664C384.859,351.664 393.684,339.004 397.371,323.176L400.93,307.875C399.215,307.219 397.371,307.086 395.66,307.086M412.125,339.004C409.754,349.688 409.094,357.469 408.965,362.48L390.391,362.48C390.656,359.184 391.84,352.984 392.895,346.914C388.152,355.488 380.383,363.93 367.477,363.93C354.172,363.93 347.457,355.094 347.457,342.828C347.457,313.152 373.93,294.816 399.086,294.816C406.723,294.816 416.602,296.137 421.211,297.852L412.125,339.004Z" style="fill:rgb(35,31,32);fill-rule:nonzero;"/>
        <path d="M472.316,307.215C457.172,307.215 443.078,322.777 443.078,341.246C443.078,347.18 445.188,351.531 451.637,351.531C464.02,351.531 470.867,335.707 473.633,323.969L477.453,308.008C475.742,307.48 474.031,307.215 472.316,307.215M485.227,353.645C479.297,380.285 469.551,392.418 440.313,392.418C431.488,392.418 423.059,390.707 417.395,388.727L420.953,375.668C427.273,379.098 433.988,380.152 439.918,380.152C456.379,380.152 462.703,371.449 465.73,359.051L467.84,350.344C461.516,358.785 454.93,362.48 444,362.48C430.434,362.48 423.848,354.039 423.848,342.828C423.848,313.02 450.98,294.949 476.27,294.949C483.512,294.949 492.602,296.27 497.605,297.852L485.227,353.645Z" style="fill:rgb(35,31,32);fill-rule:nonzero;"/>
        <path d="M544.102,286.246L533.168,286.246L527.898,311.438L537.25,311.438C547.523,311.438 557.535,307.48 557.535,295.742C557.535,288.355 550.16,286.246 544.102,286.246M533.828,323.043L525.527,323.043L519.602,350.742L528.688,350.742C539.754,350.742 551.211,347.313 551.211,333.727C551.211,324.492 540.938,323.043 533.828,323.043M555.426,316.977C564.91,319.086 570.969,325.152 570.969,334.387C570.969,357.07 549.367,362.48 531.191,362.48L498.66,362.48L517.363,274.508L552.527,274.508C564.25,274.508 576.895,279.914 576.895,292.973C576.895,305.898 568.203,314.602 555.426,316.977" style="fill:rgb(35,31,32);fill-rule:nonzero;"/>
        <path d="M627.078,307.086C611.934,307.086 598.102,323.176 598.102,340.848C598.102,346.785 600.211,351.664 607.059,351.664C616.277,351.664 625.105,339.004 628.793,323.176L632.348,307.875C630.633,307.219 628.793,307.086 627.078,307.086M643.543,339.004C641.172,349.688 640.512,357.469 640.383,362.48L621.809,362.48C622.074,359.184 623.258,352.984 624.313,346.914C619.57,355.488 611.801,363.93 598.895,363.93C585.59,363.93 578.875,355.094 578.875,342.828C578.875,313.152 605.348,294.816 630.504,294.816C638.145,294.816 648.02,296.137 652.633,297.852L643.543,339.004Z" style="fill:rgb(35,31,32);fill-rule:nonzero;"/>
        <path d="M722.832,318.691L713.613,362.48L695.438,362.48L703.734,322.648C704.262,320.273 704.789,318.031 704.789,315.789C704.789,310.777 702.418,307.215 696.098,307.215C686.219,307.215 681.477,316.055 679.633,324.625L671.598,362.48L653.289,362.48L664.09,311.039C665.145,306.16 666.066,301.281 666.594,296.27L683.715,296.27L681.738,308.008C688.063,299.172 694.645,294.949 705.578,294.949C716.246,294.949 723.625,300.227 723.625,311.172C723.625,313.547 723.359,316.055 722.832,318.691" style="fill:rgb(35,31,32);fill-rule:nonzero;"/>
        <path d="M770.516,326.34L791.324,362.48L770.516,362.48L752.602,327.793L745.488,362.48L727.18,362.48L747.199,267.383L765.379,267.383L753.656,323.57L781.973,296.27L803.441,296.27L770.516,326.34Z" style="fill:rgb(35,31,32);fill-rule:nonzero;"/>
        <g transform="matrix(1,0,0,1,421.83,443.164)">
            <g>
                <path d="M18.578,-28.266C15.879,-28.266 13.789,-27.25 12.313,-25.219C10.844,-23.195 10.109,-20.379 10.109,-16.766C10.109,-9.242 12.93,-5.484 18.578,-5.484C20.941,-5.484 23.805,-6.078 27.172,-7.266L27.172,-1.266C24.41,-0.109 21.32,0.469 17.906,0.469C13,0.469 9.242,-1.02 6.641,-4C4.047,-6.977 2.75,-11.25 2.75,-16.813C2.75,-20.32 3.383,-23.395 4.656,-26.031C5.938,-28.676 7.77,-30.703 10.156,-32.109C12.551,-33.516 15.359,-34.219 18.578,-34.219C21.848,-34.219 25.141,-33.426 28.453,-31.844L26.141,-26.031C24.879,-26.625 23.609,-27.145 22.328,-27.594C21.055,-28.039 19.805,-28.266 18.578,-28.266Z" style="fill:rgb(32,31,31);fill-rule:nonzero;"/>
            </g>
        </g>
        <g transform="matrix(1,0,0,1,475.36,443.164)">
            <g>
                <path d="M34.859,-16.906C34.859,-11.32 33.473,-7.031 30.703,-4.031C27.941,-1.031 23.973,0.469 18.797,0.469C13.629,0.469 9.66,-1.031 6.891,-4.031C4.129,-7.031 2.75,-11.336 2.75,-16.953C2.75,-22.566 4.133,-26.852 6.906,-29.813C9.688,-32.781 13.664,-34.266 18.844,-34.266C24.031,-34.266 27.992,-32.77 30.734,-29.781C33.484,-26.801 34.859,-22.508 34.859,-16.906ZM10.25,-16.906C10.25,-13.145 10.961,-10.305 12.391,-8.391C13.816,-6.484 15.953,-5.531 18.797,-5.531C24.504,-5.531 27.359,-9.32 27.359,-16.906C27.359,-24.508 24.52,-28.313 18.844,-28.313C16,-28.313 13.852,-27.352 12.406,-25.438C10.969,-23.52 10.25,-20.676 10.25,-16.906Z" style="fill:rgb(32,31,31);fill-rule:nonzero;"/>
            </g>
        </g>
        <g transform="matrix(1,0,0,1,536.385,443.164)">
            <g>
                <path d="M34.172,0L25.078,0L10.406,-25.516L10.203,-25.516C10.492,-21.004 10.641,-17.789 10.641,-15.875L10.641,0L4.25,0L4.25,-33.734L13.266,-33.734L27.922,-8.469L28.078,-8.469C27.848,-12.852 27.734,-15.953 27.734,-17.766L27.734,-33.734L34.172,-33.734L34.172,0Z" style="fill:rgb(32,31,31);fill-rule:nonzero;"/>
            </g>
        </g>
        <g transform="matrix(1,0,0,1,598.217,443.164)">
            <g>
                <path d="M34.172,0L25.078,0L10.406,-25.516L10.203,-25.516C10.492,-21.004 10.641,-17.789 10.641,-15.875L10.641,0L4.25,0L4.25,-33.734L13.266,-33.734L27.922,-8.469L28.078,-8.469C27.848,-12.852 27.734,-15.953 27.734,-17.766L27.734,-33.734L34.172,-33.734L34.172,0Z" style="fill:rgb(32,31,31);fill-rule:nonzero;"/>
            </g>
        </g>
        <g transform="matrix(1,0,0,1,660.049,443.164)">
            <g>
                <path d="M23.672,0L4.25,0L4.25,-33.734L23.672,-33.734L23.672,-27.875L11.391,-27.875L11.391,-20.469L22.813,-20.469L22.813,-14.609L11.391,-14.609L11.391,-5.906L23.672,-5.906L23.672,0Z" style="fill:rgb(32,31,31);fill-rule:nonzero;"/>
            </g>
        </g>
        <g transform="matrix(1,0,0,1,709.935,443.164)">
            <g>
                <path d="M18.578,-28.266C15.879,-28.266 13.789,-27.25 12.313,-25.219C10.844,-23.195 10.109,-20.379 10.109,-16.766C10.109,-9.242 12.93,-5.484 18.578,-5.484C20.941,-5.484 23.805,-6.078 27.172,-7.266L27.172,-1.266C24.41,-0.109 21.32,0.469 17.906,0.469C13,0.469 9.242,-1.02 6.641,-4C4.047,-6.977 2.75,-11.25 2.75,-16.813C2.75,-20.32 3.383,-23.395 4.656,-26.031C5.938,-28.676 7.77,-30.703 10.156,-32.109C12.551,-33.516 15.359,-34.219 18.578,-34.219C21.848,-34.219 25.141,-33.426 28.453,-31.844L26.141,-26.031C24.879,-26.625 23.609,-27.145 22.328,-27.594C21.055,-28.039 19.805,-28.266 18.578,-28.266Z" style="fill:rgb(32,31,31);fill-rule:nonzero;"/>
            </g>
        </g>
        <g transform="matrix(1,0,0,1,763.465,443.164)">
            <g>
                <path d="M17.25,0L10.109,0L10.109,-27.781L0.953,-27.781L0.953,-33.734L26.422,-33.734L26.422,-27.781L17.25,-27.781L17.25,0Z" style="fill:rgb(32,31,31);fill-rule:nonzero;"/>
            </g>
        </g>
        <g>
            <clipPath id="_clip4">
                <rect x="0" y="722.5" width="810" height="87.5"/>
            </clipPath>
            <g clip-path="url(#_clip4)">
                <rect x="-0.156" y="722.5" width="1103.65" height="87.5" style="fill-rule:nonzero;"/>
            </g>
        </g>
        <g transform="matrix(1,0,0,1,20.823,791.592)">
            <g>
                <path d="M40.609,0L7.281,0L7.281,-57.859L40.609,-57.859L40.609,-47.813L19.547,-47.813L19.547,-35.109L39.141,-35.109L39.141,-25.047L19.547,-25.047L19.547,-10.125L40.609,-10.125L40.609,0Z" style="fill:white;fill-rule:nonzero;"/>
            </g>
        </g>
        <g transform="matrix(1,0,0,1,69.9734,790.062)">
            <g>
                <path d="M23.016,-35.016C19.68,-35.016 17.098,-33.758 15.266,-31.25C13.43,-28.75 12.516,-25.258 12.516,-20.781C12.516,-11.457 16.016,-6.797 23.016,-6.797C25.953,-6.797 29.504,-7.531 33.672,-9L33.672,-1.578C30.242,-0.141 26.414,0.578 22.188,0.578C16.102,0.578 11.453,-1.266 8.234,-4.953C5.016,-8.641 3.406,-13.938 3.406,-20.844C3.406,-25.188 4.191,-28.988 5.766,-32.25C7.348,-35.52 9.617,-38.023 12.578,-39.766C15.547,-41.516 19.023,-42.391 23.016,-42.391C27.078,-42.391 31.156,-41.41 35.25,-39.453L32.391,-32.25C30.828,-32.988 29.254,-33.633 27.672,-34.188C26.086,-34.738 24.535,-35.016 23.016,-35.016Z" style="fill:white;fill-rule:nonzero;"/>
            </g>
        </g>
        <g transform="matrix(1,0,0,1,110.669,790.062)">
            <g>
                <path d="M43.203,-20.953C43.203,-14.035 41.484,-8.719 38.047,-5C34.617,-1.281 29.703,0.578 23.297,0.578C16.891,0.578 11.973,-1.281 8.547,-5C5.117,-8.719 3.406,-14.055 3.406,-21.016C3.406,-27.973 5.125,-33.285 8.563,-36.953C12,-40.617 16.93,-42.453 23.359,-42.453C29.773,-42.453 34.688,-40.602 38.094,-36.906C41.5,-33.207 43.203,-27.891 43.203,-20.953ZM12.688,-20.953C12.688,-16.285 13.57,-12.77 15.344,-10.406C17.125,-8.039 19.773,-6.859 23.297,-6.859C30.367,-6.859 33.906,-11.555 33.906,-20.953C33.906,-30.367 30.391,-35.078 23.359,-35.078C19.828,-35.078 17.164,-33.891 15.375,-31.516C13.582,-29.141 12.688,-25.617 12.688,-20.953Z" style="fill:white;fill-rule:nonzero;"/>
            </g>
        </g>
        <g transform="matrix(1,0,0,1,160.654,790.062)">
            <g>
                <path d="M42.344,0L31.078,0L12.891,-31.625L12.641,-31.625C12.992,-26.031 13.172,-22.047 13.172,-19.672L13.172,0L5.266,0L5.266,-41.797L16.438,-41.797L34.594,-10.484L34.797,-10.484C34.504,-15.922 34.359,-19.766 34.359,-22.016L34.359,-41.797L42.344,-41.797L42.344,0Z" style="fill:white;fill-rule:nonzero;"/>
            </g>
        </g>
        <g transform="matrix(1,0,0,1,211.639,790.062)">
            <g>
                <path d="M43.203,-20.953C43.203,-14.035 41.484,-8.719 38.047,-5C34.617,-1.281 29.703,0.578 23.297,0.578C16.891,0.578 11.973,-1.281 8.547,-5C5.117,-8.719 3.406,-14.055 3.406,-21.016C3.406,-27.973 5.125,-33.285 8.563,-36.953C12,-40.617 16.93,-42.453 23.359,-42.453C29.773,-42.453 34.688,-40.602 38.094,-36.906C41.5,-33.207 43.203,-27.891 43.203,-20.953ZM12.688,-20.953C12.688,-16.285 13.57,-12.77 15.344,-10.406C17.125,-8.039 19.773,-6.859 23.297,-6.859C30.367,-6.859 33.906,-11.555 33.906,-20.953C33.906,-30.367 30.391,-35.078 23.359,-35.078C19.828,-35.078 17.164,-33.891 15.375,-31.516C13.582,-29.141 12.688,-25.617 12.688,-20.953Z" style="fill:white;fill-rule:nonzero;"/>
            </g>
        </g>
        <g transform="matrix(1,0,0,1,261.624,790.062)">
            <g>
                <path d="M22.953,0L12.891,-32.797L12.641,-32.797C12.992,-26.117 13.172,-21.664 13.172,-19.438L13.172,0L5.266,0L5.266,-41.797L17.328,-41.797L27.219,-9.828L27.391,-9.828L37.875,-41.797L49.938,-41.797L49.938,0L41.688,0L41.688,-19.781C41.688,-20.719 41.695,-21.797 41.719,-23.016C41.75,-24.234 41.879,-27.473 42.109,-32.734L41.859,-32.734L31.078,0L22.953,0Z" style="fill:white;fill-rule:nonzero;"/>
            </g>
        </g>
        <g transform="matrix(1,0,0,1,320.212,790.062)">
            <g>
                <rect x="5.266" y="-41.797" width="8.859" height="41.797" style="fill:white;fill-rule:nonzero;"/>
            </g>
        </g>
        <g transform="matrix(1,0,0,1,342.987,790.062)">
            <g>
                <path d="M32.5,0L1.406,0L1.406,-5.75L21.438,-34.469L1.938,-34.469L1.938,-41.797L31.953,-41.797L31.953,-36.078L11.953,-7.313L32.5,-7.313L32.5,0Z" style="fill:white;fill-rule:nonzero;"/>
            </g>
        </g>
        <g transform="matrix(1,0,0,1,380.281,790.062)">
            <g>
                <path d="M29.328,0L5.266,0L5.266,-41.797L29.328,-41.797L29.328,-34.531L14.125,-34.531L14.125,-25.359L28.266,-25.359L28.266,-18.094L14.125,-18.094L14.125,-7.313L29.328,-7.313L29.328,0Z" style="fill:white;fill-rule:nonzero;"/>
            </g>
        </g>
        <g transform="matrix(1,0,0,1,435.062,790.062)">
            <g>
                <path d="M42.344,0L31.078,0L12.891,-31.625L12.641,-31.625C12.992,-26.031 13.172,-22.047 13.172,-19.672L13.172,0L5.266,0L5.266,-41.797L16.438,-41.797L34.594,-10.484L34.797,-10.484C34.504,-15.922 34.359,-19.766 34.359,-22.016L34.359,-41.797L42.344,-41.797L42.344,0Z" style="fill:white;fill-rule:nonzero;"/>
            </g>
        </g>
        <g transform="matrix(1,0,0,1,486.048,790.062)">
            <g>
                <path d="M30.844,0L27.813,-9.953L12.578,-9.953L9.547,0L0,0L14.75,-41.969L25.578,-41.969L40.391,0L30.844,0ZM25.703,-17.375C22.898,-26.395 21.32,-31.492 20.969,-32.672C20.613,-33.859 20.363,-34.797 20.219,-35.484C19.582,-33.035 17.781,-27 14.813,-17.375L25.703,-17.375Z" style="fill:white;fill-rule:nonzero;"/>
            </g>
        </g>
        <g transform="matrix(1,0,0,1,529.83,790.062)">
            <g>
                <path d="M29.938,-11.609C29.938,-7.836 28.578,-4.863 25.859,-2.688C23.141,-0.508 19.359,0.578 14.516,0.578C10.055,0.578 6.113,-0.258 2.688,-1.938L2.688,-10.172C5.508,-8.922 7.895,-8.035 9.844,-7.516C11.801,-7.004 13.586,-6.75 15.203,-6.75C17.148,-6.75 18.641,-7.117 19.672,-7.859C20.711,-8.598 21.234,-9.703 21.234,-11.172C21.234,-11.992 21.004,-12.723 20.547,-13.359C20.098,-14.004 19.426,-14.617 18.531,-15.203C17.645,-15.797 15.844,-16.738 13.125,-18.031C10.57,-19.238 8.656,-20.395 7.375,-21.5C6.094,-22.602 5.07,-23.891 4.313,-25.359C3.551,-26.828 3.172,-28.539 3.172,-30.5C3.172,-34.195 4.422,-37.102 6.922,-39.219C9.43,-41.332 12.898,-42.391 17.328,-42.391C19.492,-42.391 21.563,-42.129 23.531,-41.609C25.508,-41.098 27.578,-40.379 29.734,-39.453L26.875,-32.563C24.645,-33.477 22.801,-34.113 21.344,-34.469C19.883,-34.832 18.445,-35.016 17.031,-35.016C15.352,-35.016 14.066,-34.625 13.172,-33.844C12.273,-33.063 11.828,-32.039 11.828,-30.781C11.828,-30 12.008,-29.316 12.375,-28.734C12.738,-28.16 13.316,-27.602 14.109,-27.063C14.898,-26.52 16.77,-25.539 19.719,-24.125C23.625,-22.258 26.301,-20.383 27.75,-18.5C29.207,-16.625 29.938,-14.328 29.938,-11.609Z" style="fill:white;fill-rule:nonzero;"/>
            </g>
        </g>
        <g transform="matrix(1,0,0,1,580.492,791.592)">
            <g>
                <path d="M29.594,0L17.328,0L17.328,-47.641L1.625,-47.641L1.625,-57.859L45.313,-57.859L45.313,-47.641L29.594,-47.641L29.594,0Z" style="fill:white;fill-rule:nonzero;"/>
            </g>
        </g>
        <g transform="matrix(1,0,0,1,623.74,790.062)">
            <g>
                <path d="M30.844,0L27.813,-9.953L12.578,-9.953L9.547,0L0,0L14.75,-41.969L25.578,-41.969L40.391,0L30.844,0ZM25.703,-17.375C22.898,-26.395 21.32,-31.492 20.969,-32.672C20.613,-33.859 20.363,-34.797 20.219,-35.484C19.582,-33.035 17.781,-27 14.813,-17.375L25.703,-17.375Z" style="fill:white;fill-rule:nonzero;"/>
            </g>
        </g>
        <g transform="matrix(1,0,0,1,667.523,790.062)">
            <g>
                <path d="M39.047,0L28.938,0L19.203,-15.813L9.484,0L0,0L13.859,-21.563L0.891,-41.797L10.656,-41.797L19.672,-26.75L28.5,-41.797L38.047,-41.797L24.922,-21.063L39.047,0Z" style="fill:white;fill-rule:nonzero;"/>
            </g>
        </g>
        <g transform="matrix(1,0,0,1,709.962,790.062)">
            <g>
                <path d="M30.844,0L27.813,-9.953L12.578,-9.953L9.547,0L0,0L14.75,-41.969L25.578,-41.969L40.391,0L30.844,0ZM25.703,-17.375C22.898,-26.395 21.32,-31.492 20.969,-32.672C20.613,-33.859 20.363,-34.797 20.219,-35.484C19.582,-33.035 17.781,-27 14.813,-17.375L25.703,-17.375Z" style="fill:white;fill-rule:nonzero;"/>
            </g>
        </g>
        <g transform="matrix(1,0,0,1,753.744,790.062)">
            <g>
                <path d="M29.938,-11.609C29.938,-7.836 28.578,-4.863 25.859,-2.688C23.141,-0.508 19.359,0.578 14.516,0.578C10.055,0.578 6.113,-0.258 2.688,-1.938L2.688,-10.172C5.508,-8.922 7.895,-8.035 9.844,-7.516C11.801,-7.004 13.586,-6.75 15.203,-6.75C17.148,-6.75 18.641,-7.117 19.672,-7.859C20.711,-8.598 21.234,-9.703 21.234,-11.172C21.234,-11.992 21.004,-12.723 20.547,-13.359C20.098,-14.004 19.426,-14.617 18.531,-15.203C17.645,-15.797 15.844,-16.738 13.125,-18.031C10.57,-19.238 8.656,-20.395 7.375,-21.5C6.094,-22.602 5.07,-23.891 4.313,-25.359C3.551,-26.828 3.172,-28.539 3.172,-30.5C3.172,-34.195 4.422,-37.102 6.922,-39.219C9.43,-41.332 12.898,-42.391 17.328,-42.391C19.492,-42.391 21.563,-42.129 23.531,-41.609C25.508,-41.098 27.578,-40.379 29.734,-39.453L26.875,-32.563C24.645,-33.477 22.801,-34.113 21.344,-34.469C19.883,-34.832 18.445,-35.016 17.031,-35.016C15.352,-35.016 14.066,-34.625 13.172,-33.844C12.273,-33.063 11.828,-32.039 11.828,-30.781C11.828,-30 12.008,-29.316 12.375,-28.734C12.738,-28.16 13.316,-27.602 14.109,-27.063C14.898,-26.52 16.77,-25.539 19.719,-24.125C23.625,-22.258 26.301,-20.383 27.75,-18.5C29.207,-16.625 29.938,-14.328 29.938,-11.609Z" style="fill:white;fill-rule:nonzero;"/>
            </g>
        </g>
        <path d="M469.215,577.828L464.609,584.676L364.871,517.34L369.477,510.492C371.59,507.344 375.871,506.504 379,508.621L467.348,568.27C470.488,570.391 471.328,574.68 469.215,577.828ZM437.086,625.648L442.152,589.418L455.41,598.371L437.086,625.648ZM427.695,657.07C427.172,660.824 423.695,663.457 419.949,662.93L314.465,648.113C310.719,647.59 308.078,644.094 308.617,640.34L315.09,594L434.18,610.742L427.695,657.07ZM318.52,569.48C319.047,565.715 322.523,563.094 326.27,563.621L431.754,578.445C435.512,578.961 438.137,582.445 437.602,586.211L436.461,594.383L317.371,577.652L318.52,569.48ZM355.68,531.031L414.996,571.082L336.207,560L355.68,531.031ZM470.109,564.168L381.773,504.52C376.371,500.875 369.016,502.301 365.371,507.723L330.75,559.238L326.961,558.711C320.512,557.805 314.531,562.332 313.625,568.797L303.73,639.645C302.816,646.109 307.332,652.105 313.77,653.012L419.254,667.84C425.707,668.746 431.688,664.207 432.594,657.754L435.52,636.84L473.305,580.586C476.949,575.184 475.508,567.813 470.109,564.168" style="fill-rule:nonzero;"/>
        <path d="M372.035,614.91L422.898,622.07L423.461,618.027L372.605,610.875L372.035,614.91" style="fill-rule:nonzero;"/>
        <path d="M370.828,623.652L421.684,630.789L422.242,626.746L371.387,619.594L370.828,623.652" style="fill-rule:nonzero;"/>
        <g transform="matrix(1,0,0,1,496,500)">
            <g>
                <g>
                    <g>
                        <path d="M0.824,0.422L15.387,0.422L15.387,175.172L0.824,175.172L0.824,0.422ZM190.137,0.422L199.844,0.422L199.844,175.172L190.137,175.172L190.137,0.422ZM25.094,0.422L39.656,0.422L39.656,112.066L25.094,112.066L25.094,0.422ZM49.363,0.422L59.074,0.422L59.074,112.066L49.363,112.066L49.363,0.422ZM68.781,0.422L78.488,0.422L78.488,112.066L68.781,112.066L68.781,0.422ZM93.051,0.422L107.613,0.422L107.613,112.066L93.051,112.066L93.051,0.422ZM122.176,0.422L131.887,0.422L131.887,112.066L122.176,112.066L122.176,0.422ZM141.594,0.422L151.301,0.422L151.301,112.066L141.594,112.066L141.594,0.422ZM161.012,0.422L180.426,0.422L180.426,112.066L161.012,112.066L161.012,0.422ZM25.141,165.438L25.141,130.207L35.125,130.207C38.805,130.207 41.602,131.023 43.512,132.664C45.422,134.297 46.379,136.695 46.379,139.855C46.379,141.648 45.984,143.188 45.195,144.477C44.402,145.77 43.324,146.711 41.953,147.309C43.531,147.758 44.746,148.668 45.605,150.031C46.461,151.395 46.887,153.07 46.887,155.074C46.887,158.492 45.945,161.074 44.074,162.816C42.195,164.555 39.473,165.422 35.91,165.422L25.141,165.422L25.141,165.438ZM32.223,144.945L35.059,144.945C37.852,144.945 39.246,143.496 39.246,140.609C39.246,139.012 38.926,137.871 38.281,137.172C37.637,136.473 36.59,136.133 35.137,136.133L32.223,136.133L32.223,144.945ZM32.223,150.125L32.223,159.535L35.902,159.535C37.18,159.535 38.145,159.141 38.805,158.352C39.465,157.559 39.797,156.438 39.797,154.988C39.797,151.82 38.652,150.199 36.359,150.125L32.223,150.125ZM74.145,150.832C74.145,155.441 73.051,159.02 70.871,161.57C68.699,164.121 65.676,165.395 61.801,165.395C57.941,165.395 54.918,164.133 52.715,161.609C50.508,159.078 49.395,155.551 49.359,151L49.359,145.125C49.359,140.406 50.453,136.727 52.637,134.07C54.824,131.422 57.859,130.094 61.746,130.094C65.57,130.094 68.586,131.391 70.785,134.004C72.988,136.598 74.102,140.258 74.137,144.965L74.145,150.832ZM67.184,145.07C67.184,141.977 66.746,139.672 65.863,138.156C64.98,136.648 63.609,135.895 61.758,135.895C59.918,135.895 58.559,136.617 57.68,138.07C56.797,139.527 56.34,141.738 56.305,144.715L56.305,150.828C56.305,153.832 56.754,156.047 57.648,157.469C58.547,158.891 59.93,159.602 61.805,159.602C63.609,159.602 64.961,158.914 65.84,157.508C66.723,156.121 67.176,153.957 67.188,151.035L67.184,145.07ZM180.426,150.926C180.426,155.535 179.336,159.113 177.156,161.66C174.98,164.215 171.957,165.488 168.082,165.488C164.223,165.488 161.199,164.223 158.996,161.699C156.793,159.172 155.676,155.641 155.641,151.094L155.641,145.215C155.641,140.496 156.734,136.816 158.918,134.164C161.105,131.512 164.141,130.188 168.027,130.188C171.855,130.188 174.867,131.484 177.066,134.094C179.27,136.691 180.383,140.352 180.418,145.055L180.426,150.926ZM173.465,145.168C173.465,142.074 173.027,139.77 172.145,138.254C171.262,136.746 169.895,135.992 168.039,135.992C166.199,135.992 164.84,136.715 163.961,138.168C163.078,139.625 162.621,141.836 162.586,144.813L162.586,150.926C162.586,153.93 163.035,156.141 163.934,157.566C164.832,158.988 166.215,159.699 168.086,159.699C169.895,159.699 171.242,159.012 172.121,157.602C173.004,156.219 173.457,154.055 173.469,151.133L173.465,145.168ZM85.602,159.547L98.086,159.547L98.086,165.449L78.488,165.449L78.488,130.223L85.605,130.223L85.602,159.547ZM120.957,150.207L109.875,150.207L109.875,159.547L122.992,159.547L122.992,165.449L102.762,165.449L102.762,130.223L122.938,130.223L122.938,136.148L109.875,136.148L109.875,144.473L120.957,144.473L120.957,150.207ZM152.59,136.164L143.875,136.164L143.875,165.461L136.738,165.461L136.738,136.164L128.172,136.164L128.172,130.23L152.582,130.23L152.59,136.164Z" style="fill:rgb(11,5,12);fill-rule:nonzero;"/>
                    </g>
                </g>
            </g>
        </g>
        <path d="M225.176,554.949L206.023,574.105C203.922,576.203 201.16,577.254 198.398,577.254C195.641,577.254 192.879,576.203 190.777,574.105L171.625,554.949C167.289,550.617 161.531,548.23 155.402,548.23L141.813,548.23L124.738,565.301C114.066,575.977 114.066,593.277 124.738,603.949L141.813,621.023L155.402,621.023C161.531,621.023 167.293,618.637 171.625,614.305L190.777,595.148C194.98,590.945 201.82,590.945 206.023,595.148L225.176,614.305C229.508,618.637 235.27,621.023 241.395,621.023L254.719,621.023L271.793,603.949C282.465,593.277 282.465,575.977 271.793,565.301L254.719,548.23L241.395,548.23C235.27,548.23 229.508,550.617 225.176,554.949Z" style="fill-rule:nonzero;"/>
        <path d="M155.402,543.438C162.809,543.438 169.773,546.324 175.012,551.563L194.168,570.715C196.5,573.047 200.297,573.047 202.633,570.715L221.785,551.563C227.023,546.324 233.988,543.438 241.395,543.438L249.926,543.438L217.59,511.102C206.918,500.43 189.613,500.43 178.941,511.102L146.605,543.438L155.402,543.438Z" style="fill-rule:nonzero;"/>
        <path d="M241.395,625.816C233.988,625.816 227.023,622.93 221.785,617.691L202.633,598.539C200.297,596.203 196.5,596.207 194.168,598.539L175.012,617.691C169.773,622.93 162.809,625.816 155.402,625.816L146.605,625.816L178.941,658.152C189.613,668.824 206.918,668.824 217.59,658.152L249.926,625.816L241.395,625.816Z" style="fill-rule:nonzero;"/>
        <g>
            <clipPath id="_clip5">
                <rect x="762" y="675" width="48" height="88"/>
            </clipPath>
            <g clip-path="url(#_clip5)">
                <g>
                    <clipPath id="_clip6">
                        <path d="M762.832,707.543L789.387,675.012L857.172,730.344L830.617,762.875L762.832,707.543Z"/>
                    </clipPath>
                    <g clip-path="url(#_clip6)">
                        <path d="M762.832,707.543L789.387,675.012L857.117,730.301L830.563,762.832L762.832,707.543Z" style="fill:white;fill-rule:nonzero;"/>
                    </g>
                </g>
            </g>
        </g>
    </g>
</svg>
