<?xml version="1.0" encoding="UTF-8" standalone="no"?>
<!DOCTYPE svg PUBLIC "-//W3C//DTD SVG 1.1//EN" "http://www.w3.org/Graphics/SVG/1.1/DTD/svg11.dtd">
<svg width="100%" height="100%" viewBox="0 0 286 287" version="1.1" xmlns="http://www.w3.org/2000/svg" xmlns:xlink="http://www.w3.org/1999/xlink" xml:space="preserve" xmlns:serif="http://www.serif.com/" style="fill-rule:evenodd;clip-rule:evenodd;stroke-linejoin:round;stroke-miterlimit:2;">
    <g transform="matrix(0.958333,0,0,0.958333,0,0)">
        <g transform="matrix(1.33333,0,0,1.33333,-10.1667,-281.24)">
            <clipPath id="_clip1">
                <rect x="7" y="211" width="224" height="223.926"/>
            </clipPath>
            <g clip-path="url(#_clip1)">
                <path d="M119.18,435.285C57.668,435.285 7.625,385.172 7.625,323.574C7.625,261.977 57.668,211.863 119.18,211.863C180.691,211.863 230.734,261.977 230.734,323.574C230.734,385.172 180.691,435.285 119.18,435.285" style="fill:rgb(3,4,5);fill-rule:nonzero;"/>
            </g>
        </g>
        <g transform="matrix(1.33333,0,0,1.33333,-10.1667,-281.24)">
            <path d="M119.18,218.848C61.516,218.848 14.602,265.828 14.602,323.574C14.602,381.316 61.516,428.297 119.18,428.297C176.844,428.297 223.758,381.316 223.758,323.574C223.758,265.828 176.844,218.848 119.18,218.848" style="fill:rgb(3,4,5);fill-rule:nonzero;"/>
        </g>
        <g transform="matrix(1.33333,0,0,1.33333,-10.1667,-281.24)">
            <path d="M211.941,308.434C211.941,359.738 170.41,401.324 119.18,401.324C67.949,401.324 26.422,359.738 26.422,308.434C26.422,257.133 67.949,215.543 119.18,215.543C170.41,215.543 211.941,257.133 211.941,308.434" style="fill:rgb(221,228,96);fill-rule:nonzero;"/>
        </g>
        <g transform="matrix(1.33333,0,0,1.33333,-10.1667,-281.24)">
            <path d="M119.18,217.918C69.957,217.918 29.91,258.023 29.91,307.316C29.91,356.613 69.957,396.715 119.18,396.715C168.406,396.715 208.453,356.613 208.453,307.316C208.453,258.023 168.406,217.918 119.18,217.918M119.18,403.703C66.109,403.703 22.93,360.465 22.93,307.316C22.93,254.168 66.109,210.93 119.18,210.93C172.254,210.93 215.43,254.168 215.43,307.316C215.43,360.465 172.254,403.703 119.18,403.703" style="fill:rgb(3,4,5);fill-rule:nonzero;"/>
        </g>
        <g transform="matrix(1.33333,0,0,1.33333,-10.1667,-281.24)">
            <path d="M178.926,367.133C170.016,408.77 129.086,435.289 87.508,426.363C45.934,417.441 19.449,376.457 28.359,334.82C37.27,293.184 78.199,266.664 119.773,275.59C161.352,284.512 187.836,325.496 178.926,367.133" style="fill:rgb(167,220,218);fill-rule:nonzero;"/>
        </g>
        <g transform="matrix(1.33333,0,0,1.33333,-10.1667,-281.24)">
            <path d="M103.629,277.363C69.723,277.363 39.156,301.043 31.77,335.551C27.656,354.777 31.266,374.457 41.934,390.961C52.598,407.469 69.043,418.828 88.242,422.949C107.441,427.066 127.09,423.457 143.574,412.773C160.059,402.094 171.398,385.625 175.516,366.402C184.008,326.715 158.676,287.508 119.043,279.004C113.875,277.895 108.715,277.363 103.629,277.363M103.805,431.598C98.145,431.598 92.445,430.996 86.781,429.781C65.758,425.27 47.754,412.832 36.074,394.758C24.395,376.684 20.445,355.141 24.949,334.09C34.25,290.637 77.113,262.859 120.508,272.172C163.898,281.484 191.637,324.414 182.336,367.863C177.832,388.914 165.41,406.945 147.363,418.641C134.18,427.184 119.145,431.598 103.805,431.598" style="fill:rgb(3,4,5);fill-rule:nonzero;"/>
        </g>
        <g transform="matrix(1.33333,0,0,1.33333,-10.1667,-281.24)">
            <path d="M218.668,354.227C218.668,380.648 197.277,402.066 170.895,402.066C144.512,402.066 123.125,380.648 123.125,354.227C123.125,327.809 144.512,306.387 170.895,306.387C197.277,306.387 218.668,327.809 218.668,354.227" style="fill:rgb(246,223,62);fill-rule:nonzero;"/>
        </g>
        <g transform="matrix(1.33333,0,0,1.33333,-10.1667,-281.24)">
            <path d="M170.895,309.883C146.477,309.883 126.613,329.777 126.613,354.227C126.613,378.68 146.477,398.574 170.895,398.574C195.313,398.574 215.176,378.68 215.176,354.227C215.176,329.777 195.313,309.883 170.895,309.883M170.895,405.559C142.629,405.559 119.633,382.531 119.633,354.227C119.633,325.922 142.629,302.895 170.895,302.895C199.16,302.895 222.156,325.922 222.156,354.227C222.156,382.531 199.16,405.559 170.895,405.559" style="fill:rgb(3,4,5);fill-rule:nonzero;"/>
        </g>
    </g>
</svg>
